<svg xmlns="http://www.w3.org/2000/svg" version="1.1" xmlns:xlink="http://www.w3.org/1999/xlink" width="2000" height="1500" viewBox="0 0 2000 1500"><rect width="2000" height="1500" x="0" y="0" id="background" stroke="transparent" fill="transparent"></rect>
<svg xml:space="preserve" width="1500" height="1125" data-version="2" data-id="lg_uVIV9mcgbBf6Hdk3OU" viewBox="0 0 355 199" x="250" y="187.5">
<rect width="100%" height="100%" fill="transparent"></rect>
<path fill="#07be61" d="M50.425 36.895q9.21 0 16.48 3.67 7.28 3.67 11.45 11.23 4.18 7.56 4.18 19.37v44.35h-22.47v-40.89q0-9.36-4.1-13.83-4.1-4.46-11.59-4.46-5.33 0-9.58 2.23t-6.62 6.84q-2.38 4.61-2.38 11.81v38.3H3.335v-77.47h21.45v21.46l-4.03-6.48q4.18-7.78 11.95-11.95 7.78-4.18 17.72-4.18m85.1 79.78q-9.65 0-17.21-3.75-7.56-3.74-11.73-11.45-4.18-7.7-4.18-19.65v-43.78h22.46v40.47q0 9.64 4.11 14.18 4.1 4.54 11.59 4.54 5.18 0 9.22-2.24 4.03-2.23 6.33-6.91 2.31-4.68 2.31-11.73v-38.31h22.46v77.47h-21.31v-21.31l3.89 6.19q-3.89 8.07-11.45 12.17-7.56 4.11-16.49 4.11m97.92 0q-13.68 0-21.31-6.99-7.63-6.98-7.63-20.81v-67.96h22.46v67.68q0 4.89 2.59 7.56 2.59 2.66 7.06 2.66 5.33 0 9.07-2.88l6.05 15.84q-3.46 2.45-8.28 3.67-4.83 1.23-10.01 1.23m12.82-59.62h-53.72v-17.28h53.72zm40.6 58.46h-22.46v-77.47h21.46v21.89l-3.03-6.34q3.46-8.2 11.09-12.45t18.58-4.25v20.74q-1.44-.15-2.6-.22-1.15-.07-2.44-.07-9.22 0-14.91 5.25-5.69 5.26-5.69 16.35zm62.07 0h-22.47v-77.47h22.47zm-11.23-88.27q-6.2 0-10.08-3.6-3.89-3.6-3.89-8.93 0-5.32 3.89-8.92 3.88-3.6 10.08-3.6 6.19 0 10.08 3.38 3.88 3.38 3.88 8.71 0 5.62-3.81 9.29-3.82 3.67-10.15 3.67"></path>
<path fill="#0249af" d="M93.245 196.205h-8v-35h6.7l20.65 25.2h-3.25v-25.2h8v35h-6.65l-20.7-25.2h3.25zm39.85-14.6v-6.3h16.85v6.3zm.6-13.9v22h19.05v6.5h-27.1v-35h26.45v6.5zm41.05 29.1q-7.45 0-11.65-4.15t-4.2-11.85v-19.6h8.1v19.3q0 5 2.05 7.2t5.75 2.2q3.7 0 5.75-2.2t2.05-7.2v-19.3h8v19.6q0 7.7-4.2 11.85-4.2 4.15-11.65 4.15m42.35-.6h-8l-15.1-35h8.75l13.2 31h-5.15l13.4-31h8.05zm35.8.6q-4.15 0-7.67-1.35-3.53-1.35-6.1-3.8-2.58-2.45-4-5.75-1.43-3.3-1.43-7.2 0-3.9 1.43-7.2 1.42-3.3 4.02-5.75 2.6-2.45 6.1-3.8 3.5-1.35 7.6-1.35 4.15 0 7.63 1.35 3.47 1.35 6.05 3.8 2.57 2.45 4.02 5.72 1.45 3.28 1.45 7.23 0 3.9-1.45 7.22-1.45 3.33-4.02 5.75-2.58 2.43-6.05 3.78-3.48 1.35-7.58 1.35m-.05-6.9q2.35 0 4.33-.8 1.97-.8 3.47-2.3 1.5-1.5 2.33-3.55.82-2.05.82-4.55t-.82-4.55q-.83-2.05-2.3-3.55-1.48-1.5-3.48-2.3-2-.8-4.35-.8-2.35 0-4.32.8-1.98.8-3.48 2.3-1.5 1.5-2.32 3.55-.83 2.05-.83 4.55 0 2.45.83 4.52.82 2.08 2.3 3.58 1.47 1.5 3.47 2.3 2 .8 4.35.8"></path>
</svg></svg>